<svg xmlns="http://www.w3.org/2000/svg" xmlns:xlink="http://www.w3.org/1999/xlink" viewBox="0 0 1700 4592">
  <pattern width="150" height="150" patternUnits="userSpaceOnUse" id="a" viewBox="0 -150 150 150" overflow="visible">
    <path fill="none" d="M0 0h150v-150H0z"/>
    <path fill="#A8CCCB" d="M115.523-98.533l.14.04-.04.16c3.94 1.956 8.032 4.38 11.94 6.9 3.868-7.905 6.882-15.37 8.153-18.626-3.457-.52-11.433-1.64-20.204-2.24.23 4.64.285 9.39.01 13.78zM75-28.053l-.11-.105c-3.665 2.434-7.81 4.766-11.944 6.89 4.91 7.31 9.87 13.653 12.056 16.385 2.186-2.73 7.145-9.076 12.056-16.386-4.136-2.12-8.28-4.45-11.945-6.88l-.113.1zm-61.78-9.015L37.066-13.22c-.503-3.184-1.773-11.828-2.406-21.45-9.593-.64-18.292-1.907-21.44-2.398zm27.443-54.167c.47.27 1.008.416 1.55.416 1.113 0 2.147-.59 2.697-1.56.416-.71.525-1.54.314-2.33-.214-.81-.732-1.48-1.458-1.9-.136-.08-.572-.26-1.67-.26-1.363 0-2.958.28-4.086.53.733 2.32 1.81 4.64 2.653 5.13zm4.52-24.473c2.235 0 4.345.063 6.294.184l.045-.157.156.03c1.954-3.94 4.373-8.02 6.89-11.92-7.906-3.88-15.37-6.9-18.627-8.18-.52 3.46-1.65 11.44-2.25 20.23 2.5-.13 5.02-.21 7.5-.21zm67.753 102.485l23.848-23.848c-3.15.49-11.85 1.76-21.44 2.39-.635 9.62-1.906 18.26-2.408 21.45zM75-121.95l.112.107c3.664-2.434 7.808-4.765 11.942-6.89-4.91-7.31-9.87-13.653-12.056-16.384-2.186 2.73-7.144 9.075-12.055 16.385 4.135 2.124 8.278 4.456 11.943 6.89l.114-.11zm0 81.688c-1.72 0-3.117 1.407-3.116 3.133 0 .95 1.472 3.05 3.116 4.85 1.645-1.79 3.116-3.9 3.116-4.84 0-1.72-1.397-3.13-3.116-3.13zM140.287-150l9.713 9.713V-150zM130.1-89.767c9.796 6.548 17.855 13.196 18.357 13.61L149.852-75l-1.395 1.155c-.502.415-8.562 7.062-18.356 13.61 4.96 10.068 8.52 19.423 9.04 20.813L150-50.287v-49.425l-10.867-10.868c-.52 1.388-4.073 10.744-9.033 20.813zM28.044-75l.1-.104c-2.43-3.666-4.76-7.812-6.882-11.948-7.307 4.91-13.648 9.868-16.378 12.054 2.73 2.185 9.073 7.142 16.38 12.05 2.12-4.135 4.45-8.28 6.882-11.947L28.044-75zm6.29-23.494l.14-.04c-.274-4.387-.22-9.137.01-13.773-8.77.6-16.745 1.723-20.202 2.25 1.27 3.258 4.285 10.72 8.155 18.627 3.906-2.52 7.998-4.944 11.938-6.9l-.04-.164zm102.45-14.436l-23.85-23.85c.5 3.187 1.77 11.83 2.403 21.45 9.597.64 18.298 1.91 21.446 2.4z"/>
    <path fill="#A8CCCB" d="M104.82-112.708c2.53 0 5.113.083 7.67.217.232 4.45.303 9 .073 13.18-1.274-.28-3.063-.58-4.663-.58-1.36 0-2.396.22-3.172.66-1.41.81-2.42 2.13-2.846 3.7-.427 1.58-.21 3.22.602 4.62 1.085 1.89 3.115 3.07 5.3 3.07 1.068 0 2.124-.29 3.056-.82 1.936-1.12 3.29-4.55 3.982-6.74 3.74 1.89 7.646 4.22 11.386 6.65-2.024 3.97-4.236 7.94-6.527 11.46-1.69-1.55-4.58-3.85-6.82-3.85-3.37 0-6.11 2.74-6.11 6.1s2.75 6.1 6.12 6.1c2.24 0 5.14-2.3 6.83-3.85 2.29 3.51 4.51 7.49 6.53 11.46-3.74 2.43-7.64 4.76-11.38 6.65-.69-2.19-2.05-5.62-3.98-6.74-.93-.54-1.98-.82-3.05-.82-2.18 0-4.22 1.17-5.3 3.06-.81 1.41-1.03 3.06-.6 4.64.43 1.57 1.44 2.89 2.85 3.7.78.45 1.81.67 3.17.67 1.6 0 3.39-.31 4.67-.59.23 4.18.16 8.73-.07 13.18-2.56.14-5.15.22-7.68.22-1.94 0-3.79-.05-5.5-.14.49-2.24 1.04-5.9-.08-7.82-1.08-1.89-3.1-3.07-5.28-3.07-1.07 0-2.14.28-3.07.82-1.42.815-2.43 2.134-2.85 3.71-.42 1.57-.2 3.215.61 4.61 1.12 1.95 4.55 3.31 6.74 4.01-1.89 3.735-4.22 7.63-6.64 11.37-3.97-2.03-7.94-4.24-11.45-6.53 1.55-1.69 3.84-4.57 3.84-6.8 0-3.388-2.74-6.14-6.11-6.14s-6.12 2.755-6.11 6.13c0 2.24 2.29 5.116 3.84 6.8-3.51 2.29-7.48 4.51-11.45 6.53-2.42-3.73-4.75-7.63-6.64-11.36 2.18-.7 5.62-2.06 6.73-4 .82-1.41 1.04-3.05.62-4.63-.42-1.58-1.43-2.89-2.85-3.71-.93-.54-2-.823-3.07-.823-2.18 0-4.2 1.17-5.27 3.054-1.12 1.924-.577 5.584-.086 7.83-1.72.09-3.57.14-5.514.14-2.53 0-5.12-.084-7.67-.22-.23-4.45-.31-9-.08-13.19 1.273.274 3.062.58 4.663.58 1.356 0 2.394-.22 3.17-.67 1.41-.81 2.42-2.13 2.845-3.7.43-1.58.22-3.223-.6-4.626-1.08-1.89-3.11-3.07-5.3-3.07-1.06 0-2.12.287-3.05.82-1.93 1.12-3.29 4.55-3.98 6.74-3.74-1.89-7.65-4.224-11.39-6.65 2.03-3.97 4.24-7.94 6.53-11.46 1.69 1.55 4.59 3.84 6.828 3.84 3.37 0 6.116-2.73 6.116-6.1 0-3.364-2.74-6.103-6.116-6.103-2.24 0-5.134 2.3-6.83 3.846-2.29-3.51-4.5-7.48-6.52-11.46 3.74-2.427 7.644-4.76 11.385-6.65.7 2.19 2.05 5.615 3.99 6.74.93.533 1.98.82 3.05.82 2.18 0 4.21-1.18 5.29-3.066.81-1.4 1.03-3.033.62-4.603-.42-1.58-1.436-2.91-2.856-3.73-.775-.45-1.813-.67-3.173-.67-1.6 0-3.39.31-4.66.58-.23-4.183-.16-8.73.07-13.182 2.56-.13 5.15-.214 7.68-.214 1.95 0 3.8.05 5.52.147-.49 2.244-1.036 5.9.08 7.82 1.08 1.89 3.104 3.063 5.28 3.063 1.07 0 2.13-.29 3.07-.83 1.42-.81 2.43-2.13 2.85-3.71.42-1.574.2-3.217-.61-4.616-1.12-1.95-4.55-3.31-6.735-4.004 1.89-3.74 4.22-7.63 6.64-11.37 3.97 2.02 7.936 4.23 11.44 6.53-1.54 1.68-3.84 4.56-3.84 6.8 0 3.38 2.75 6.13 6.12 6.13s6.12-2.756 6.12-6.14c0-2.235-2.294-5.11-3.84-6.8 3.51-2.29 7.48-4.505 11.445-6.53 2.42 3.73 4.75 7.63 6.64 11.36-2.187.7-5.62 2.058-6.73 4-.817 1.41-1.036 3.05-.616 4.625.42 1.58 1.43 2.9 2.85 3.716.93.54 1.99.82 3.07.82 2.18 0 4.2-1.173 5.27-3.053 1.12-1.93.58-5.582.088-7.83 1.72-.092 3.57-.14 5.52-.14zM75-104.5c-16.267 0-29.5 13.233-29.5 29.5S58.733-45.5 75-45.5s29.5-13.233 29.5-29.5-13.233-29.5-29.5-29.5z"/>
    <path fill="#A8CCCB" d="M104.813-34.29h-.002c-2.23 0-4.34-.063-6.28-.184l-.04.153-.15-.04c-1.95 3.93-4.37 8.02-6.89 11.91 7.91 3.87 15.37 6.89 18.63 8.17.53-3.46 1.65-11.44 2.25-20.23-2.49.13-5.02.2-7.49.2zm10.853-17.218l-.14.04c.274 4.388.22 9.14-.01 13.776 8.772-.6 16.746-1.722 20.202-2.25-1.27-3.257-4.285-10.72-8.155-18.627-3.906 2.53-7.998 4.95-11.938 6.9l.04.17zm-24.43-57.835c-.42.72-.53 1.552-.317 2.35.21.803.72 1.473 1.44 1.888.48.277 1.02.424 1.57.424 1.12 0 2.12-.59 2.68-1.56.51-.88.22-3.55-.27-5.77-2.31.73-4.63 1.81-5.12 2.66zm7.244-6.34l.044.158c1.95-.12 4.06-.184 6.296-.184 2.47 0 4.992.08 7.488.21-.6-8.79-1.724-16.77-2.252-20.23-3.258 1.28-10.72 4.3-18.624 8.18 2.516 3.9 4.936 7.99 6.89 11.92l.157-.04zm-26.596 2.808c0 1.73 1.397 3.135 3.116 3.135s3.116-1.406 3.116-3.134c0-.942-1.472-3.048-3.116-4.844-1.646 1.797-3.116 3.903-3.116 4.843zM75-87.82c-7.07 0-12.82 5.752-12.82 12.82S67.93-62.18 75-62.18 87.82-67.933 87.82-75 82.07-87.82 75-87.82z"/>
    <path fill="#A8CCCB" d="M101.5-75c0 14.612-11.888 26.5-26.5 26.5S48.5-60.388 48.5-75s11.888-26.5 26.5-26.5 26.5 11.888 26.5 26.5zm-10.68 0c0-8.723-7.097-15.82-15.82-15.82S59.18-83.722 59.18-75 66.276-59.18 75-59.18 90.82-66.278 90.82-75zm-53.757-61.775l-23.85 23.848c3.15-.49 11.85-1.76 21.444-2.4.633-9.615 1.903-18.257 2.406-21.448zm69.167 40.152c-.72.416-1.234 1.09-1.452 1.892-.216.8-.107 1.63.305 2.34.557.97 1.59 1.57 2.702 1.57.542 0 1.08-.15 1.554-.42.84-.49 1.91-2.81 2.64-5.12-1.13-.25-2.73-.53-4.09-.53-1.1 0-1.54.18-1.67.26zM118.38 0L150-31.62v-14.425L103.955 0zm-9.044-58.768c-.47-.27-1.007-.415-1.55-.415-1.112 0-2.146.598-2.7 1.56-.415.72-.523 1.553-.307 2.354.21.81.73 1.48 1.45 1.9.13.08.57.27 1.67.27 1.36 0 2.95-.28 4.08-.53-.74-2.31-1.81-4.64-2.66-5.12zM109.74-75c0 1.71 1.397 3.104 3.115 3.104.973 0 3.065-1.47 4.856-3.104-1.79-1.637-3.88-3.106-4.85-3.106-1.71 0-3.11 1.393-3.11 3.106zm-78.12-75L0-118.378v14.424L46.045-150zM58.766-40.658c.418-.72.528-1.55.315-2.35-.21-.802-.72-1.472-1.44-1.887-.48-.277-1.02-.424-1.57-.424-1.12 0-2.12.58-2.67 1.56-.51.88-.22 3.55.27 5.77 2.31-.73 4.63-1.81 5.12-2.66zM0-31.62L31.62 0h14.425L0-46.045zM136.045 0L150-13.954V-27.38L122.62 0zM40.26-75c0-1.713-1.398-3.106-3.115-3.106-.972 0-3.064 1.47-4.856 3.106 1.79 1.635 3.88 3.104 4.85 3.104 1.71 0 3.11-1.393 3.11-3.104zM0 0h9.713L0-9.712zm122.62-150L150-122.62v-13.425L136.045-150zM34.475-51.468l-.14-.04.04-.16c-3.94-1.956-8.03-4.38-11.938-6.9-3.87 7.908-6.884 15.372-8.155 18.63 3.457.526 11.433 1.647 20.203 2.248-.23-4.638-.284-9.39-.01-13.778zM19.9-60.234C10.104-66.78 2.045-73.428 1.543-73.844L.148-74.997l1.395-1.155c.502-.415 8.56-7.063 18.355-13.61-4.96-10.07-8.513-19.427-9.033-20.814L0-99.712v49.425L10.868-39.42c.522-1.392 4.073-10.746 9.032-20.814zm74.04 14.916c-.548 0-1.09.146-1.572.424-.72.415-1.235 1.085-1.45 1.887-.212.8-.102 1.63.313 2.342.49.854 2.82 1.936 5.13 2.67.52-2.387.74-4.95.27-5.76-.56-.983-1.56-1.563-2.68-1.563zM13.955-150L0-136.045v13.425L27.38-150zM43.77-53.38c.718-.415 1.234-1.087 1.45-1.89.217-.8.108-1.634-.305-2.347-.556-.97-1.59-1.566-2.702-1.566-.543 0-1.08.144-1.554.417-.85.487-1.92 2.808-2.65 5.122 1.13.245 2.73.528 4.09.528 1.09 0 1.53-.184 1.67-.263zM121.956-75l-.1.104c2.43 3.665 4.76 7.81 6.88 11.947 7.307-4.9 13.65-9.86 16.38-12.05-2.73-2.18-9.073-7.14-16.38-12.05-2.12 4.14-4.45 8.28-6.883 11.95l.103.11zM0-13.954L13.955 0H27.38L0-27.38zM150 0v-9.712L140.287 0zM89.77-19.904c-6.55 9.8-13.2 17.86-13.614 18.36L75-.147l-1.154-1.395c-.415-.5-7.063-8.563-13.612-18.36-10.053 4.96-19.392 8.517-20.803 9.047L50.29 0h49.426l10.857-10.856c-1.415-.533-10.75-4.09-20.8-9.048zM103.955-150L150-103.954v-14.424L118.38-150zM0-150v9.713L9.713-150zm60.232 19.903c6.55-9.8 13.196-17.858 13.61-18.36L75-149.852l1.155 1.395c.415.5 7.063 8.562 13.61 18.36 10.05-4.96 19.386-8.52 20.8-9.05L99.715-150h-49.43l-10.853 10.854c1.423.535 10.755 4.092 20.8 9.05zM51.52-34.32l-.043-.153c-1.95.12-4.06.184-6.297.184-2.47 0-4.993-.07-7.49-.2.6 8.79 1.724 16.77 2.252 20.23 3.257-1.27 10.72-4.29 18.624-8.17-2.516-3.9-4.935-7.98-6.89-11.91l-.155.04zm4.54-70.362c.547 0 1.09-.146 1.57-.424.723-.415 1.237-1.085 1.45-1.887.214-.798.104-1.63-.31-2.342-.49-.855-2.812-1.938-5.125-2.672-.52 2.39-.74 4.953-.27 5.76.563.984 1.563 1.565 2.685 1.565z"/>
    <path fill="#6EAEA4" d="M27.38-150L0-122.62v4.242L31.62-150zm-17.667 0L0-140.287v4.242L13.955-150zm94.242 0L150-103.954v4.242l-10.867-10.868c-.52 1.388-4.073 10.744-9.033 20.813 9.796 6.548 17.855 13.196 18.357 13.61L149.852-75l-1.395 1.155c-.502.415-8.562 7.062-18.356 13.61 4.96 10.068 8.52 19.423 9.04 20.813L150-50.287v4.242L103.955 0h-4.242l10.857-10.856c-1.416-.532-10.752-4.09-20.802-9.048-6.548 9.8-13.197 17.86-13.612 18.36L75-.147l-1.154-1.395c-.415-.5-7.063-8.563-13.612-18.36-10.053 4.96-19.392 8.517-20.803 9.047L50.29 0h-4.242L0-46.045v-4.242L10.868-39.42c.52-1.392 4.073-10.746 9.032-20.814-9.796-6.547-17.855-13.194-18.357-13.61L.148-74.997l1.395-1.155c.502-.415 8.56-7.063 18.355-13.61-4.96-10.07-8.513-19.427-9.033-20.814L0-99.712v-4.242L46.045-150h4.242l-10.854 10.854c1.423.534 10.755 4.092 20.8 9.05 6.548-9.8 13.195-17.86 13.61-18.36l1.155-1.396 1.155 1.395c.415.5 7.063 8.562 13.61 18.36 10.05-4.96 19.386-8.52 20.8-9.05L99.713-150h4.243zm-12.523 22.44c2.516 3.9 4.936 7.983 6.89 11.917l.157-.04.04.158c1.95-.12 4.06-.184 6.29-.184 2.47 0 4.99.08 7.48.21-.6-8.79-1.73-16.77-2.25-20.23-3.26 1.28-10.72 4.3-18.63 8.18zm21.057 15.07c-2.56-.135-5.14-.218-7.67-.218-1.95 0-3.8.048-5.52.143.49 2.244 1.03 5.902-.09 7.83-1.08 1.88-3.1 3.054-5.28 3.054-1.08 0-2.14-.29-3.07-.83-1.42-.82-2.43-2.14-2.85-3.72-.42-1.58-.2-3.22.61-4.62 1.11-1.95 4.54-3.31 6.73-4-1.89-3.74-4.22-7.63-6.65-11.37-3.97 2.02-7.94 4.24-11.45 6.53 1.54 1.69 3.84 4.56 3.84 6.8 0 3.38-2.75 6.13-6.12 6.13s-6.12-2.75-6.12-6.13c0-2.24 2.29-5.11 3.84-6.8-3.51-2.3-7.48-4.51-11.45-6.53-2.42 3.73-4.75 7.63-6.64 11.36 2.18.69 5.61 2.05 6.73 4 .81 1.4 1.03 3.04.61 4.61-.42 1.58-1.43 2.89-2.85 3.71-.94.54-2 .82-3.07.82-2.18 0-4.2-1.18-5.28-3.07-1.12-1.92-.57-5.58-.08-7.82-1.72-.1-3.57-.14-5.52-.14-2.53 0-5.12.08-7.67.22-.24 4.45-.31 9-.08 13.18 1.27-.28 3.06-.58 4.66-.58 1.36 0 2.4.22 3.17.66 1.42.82 2.43 2.15 2.85 3.73.41 1.57.2 3.2-.62 4.6-1.08 1.88-3.11 3.06-5.29 3.06-1.07 0-2.12-.28-3.05-.82-1.94-1.12-3.29-4.55-3.98-6.74-3.74 1.89-7.65 4.22-11.39 6.65 2.02 3.97 4.23 7.94 6.53 11.46 1.69-1.55 4.59-3.85 6.82-3.85 3.37 0 6.11 2.74 6.11 6.1s-2.75 6.102-6.12 6.102c-2.24 0-5.13-2.3-6.82-3.84-2.29 3.514-4.5 7.484-6.53 11.46 3.74 2.43 7.64 4.76 11.38 6.66.69-2.188 2.04-5.618 3.98-6.74.93-.54 1.99-.82 3.05-.82 2.18 0 4.22 1.174 5.3 3.07.81 1.4 1.03 3.045.6 4.624-.43 1.57-1.44 2.89-2.85 3.705-.78.45-1.81.666-3.17.666-1.6 0-3.39-.31-4.67-.58-.23 4.19-.16 8.737.07 13.19 2.56.13 5.14.217 7.67.217 1.95 0 3.794-.04 5.52-.14-.49-2.24-1.04-5.9.08-7.83 1.075-1.88 3.1-3.05 5.28-3.05 1.07 0 2.13.287 3.07.826 1.41.81 2.43 2.13 2.85 3.71.42 1.573.2 3.22-.62 4.622-1.11 1.94-4.54 3.3-6.73 4 1.89 3.73 4.22 7.63 6.645 11.36 3.97-2.025 7.94-4.24 11.45-6.53-1.55-1.69-3.847-4.565-3.847-6.8 0-3.38 2.747-6.13 6.12-6.135 3.37 0 6.115 2.75 6.115 6.13 0 2.23-2.3 5.11-3.84 6.8 3.51 2.29 7.48 4.5 11.45 6.53 2.42-3.74 4.75-7.63 6.64-11.37-2.19-.696-5.62-2.057-6.74-4-.82-1.4-1.04-3.04-.62-4.62.42-1.58 1.434-2.898 2.85-3.715.936-.54 2-.82 3.07-.82 2.18 0 4.204 1.18 5.283 3.07 1.11 1.92.57 5.572.08 7.82 1.71.09 3.56.14 5.5.14 2.53 0 5.12-.08 7.68-.22.23-4.45.302-9 .072-13.18-1.28.27-3.07.58-4.67.58-1.36 0-2.4-.22-3.17-.67-1.41-.815-2.42-2.13-2.85-3.7-.427-1.58-.21-3.23.604-4.64 1.08-1.89 3.11-3.06 5.296-3.06 1.06 0 2.12.28 3.05.81 1.94 1.13 3.29 4.56 3.98 6.74 3.74-1.89 7.65-4.22 11.39-6.65-2.026-3.97-4.24-7.94-6.53-11.46-1.69 1.55-4.59 3.85-6.83 3.85-3.37 0-6.114-2.74-6.114-6.1 0-3.37 2.74-6.11 6.11-6.11 2.24 0 5.137 2.3 6.83 3.846 2.29-3.51 4.5-7.484 6.53-11.46-3.74-2.43-7.647-4.76-11.388-6.65-.69 2.19-2.05 5.62-3.98 6.74-.94.54-1.99.82-3.06.82-2.185 0-4.215-1.177-5.3-3.07-.81-1.4-1.03-3.046-.6-4.62.43-1.576 1.44-2.89 2.85-3.71.773-.45 1.81-.665 3.17-.665 1.6 0 3.39.31 4.66.58.23-4.19.16-8.736-.07-13.19zm-4.59 15.603c-1.1 0-1.54.185-1.67.264-.72.416-1.24 1.09-1.46 1.892-.22.8-.11 1.63.3 2.34.55.97 1.59 1.57 2.7 1.57.54 0 1.08-.15 1.55-.42.84-.49 1.91-2.81 2.64-5.12-1.13-.25-2.73-.53-4.09-.53zm4.95 18.78c-1.72 0-3.12 1.395-3.12 3.107 0 1.71 1.39 3.104 3.11 3.104.97 0 3.06-1.47 4.85-3.104-1.79-1.637-3.89-3.106-4.86-3.106zm-3.52 19.34c-.47-.272-1.01-.416-1.55-.416-1.11 0-2.15.598-2.7 1.56-.42.72-.53 1.553-.31 2.354.21.81.73 1.48 1.45 1.9.13.08.57.27 1.67.27 1.36 0 2.95-.28 4.08-.53-.74-2.31-1.81-4.64-2.66-5.12zM96.62-43.755c-.562-.983-1.563-1.563-2.684-1.563-.55 0-1.09.146-1.573.424-.72.415-1.235 1.085-1.45 1.887-.212.8-.102 1.63.313 2.342.49.854 2.812 1.936 5.125 2.67.52-2.388.74-4.95.27-5.76zM75-32.285c1.645-1.795 3.116-3.9 3.116-4.843 0-1.728-1.397-3.134-3.116-3.134-1.72 0-3.117 1.407-3.116 3.133 0 .95 1.47 3.05 3.116 4.85zm-16.234-8.373c.418-.72.528-1.55.315-2.35-.21-.802-.72-1.472-1.44-1.887-.48-.277-1.02-.424-1.57-.424-1.12 0-2.12.58-2.67 1.56-.51.88-.22 3.55.27 5.77 2.31-.73 4.63-1.81 5.12-2.66zM42.1-53.115c1.096 0 1.532-.185 1.67-.264.718-.41 1.234-1.08 1.45-1.89.217-.8.108-1.63-.305-2.34-.556-.97-1.59-1.56-2.702-1.56-.543 0-1.08.15-1.554.42-.85.49-1.92 2.81-2.65 5.12 1.13.25 2.72.53 4.09.53zm-4.955-18.78c1.717 0 3.114-1.394 3.114-3.105 0-1.713-1.4-3.106-3.12-3.106-.97 0-3.07 1.47-4.86 3.106 1.79 1.635 3.88 3.104 4.85 3.104zm3.518-19.34c.47.27 1.008.416 1.55.416 1.113 0 2.147-.59 2.697-1.56.416-.71.525-1.54.314-2.33-.214-.81-.732-1.48-1.458-1.9-.136-.08-.572-.26-1.67-.26-1.363 0-2.958.28-4.086.53.733 2.32 1.81 4.64 2.653 5.13zm12.712-15.01c.563.982 1.563 1.563 2.685 1.563.547 0 1.09-.146 1.57-.424.723-.415 1.237-1.085 1.45-1.887.214-.798.104-1.63-.31-2.342-.49-.855-2.812-1.938-5.125-2.672-.52 2.39-.74 4.954-.27 5.762zM75-117.718c-1.646 1.797-3.116 3.902-3.116 4.843 0 1.73 1.397 3.135 3.116 3.135s3.116-1.406 3.116-3.134c0-.942-1.47-3.048-3.116-4.844zm16.235 8.375c-.42.72-.53 1.552-.316 2.35.21.803.72 1.473 1.44 1.888.48.277 1.02.424 1.57.424 1.12 0 2.12-.59 2.68-1.56.51-.88.22-3.55-.27-5.77-2.31.73-4.63 1.81-5.12 2.66zm-28.29-19.388c4.134 2.12 8.277 4.45 11.942 6.88l.113-.11.112.11c3.664-2.44 7.808-4.77 11.942-6.89-4.91-7.31-9.87-13.66-12.056-16.39-2.185 2.73-7.143 9.07-12.054 16.38zM37.69-115.51c2.495-.127 5.02-.202 7.49-.202 2.236 0 4.346.064 6.295.185l.045-.157.157.038c1.954-3.935 4.373-8.02 6.89-11.917-7.906-3.88-15.37-6.9-18.627-8.176-.527 3.46-1.65 11.44-2.25 20.23zm-24.476 2.578c3.15-.49 11.85-1.76 21.443-2.4.632-9.613 1.9-18.255 2.405-21.446L13.214-112.93zm9.222 21.498c3.906-2.522 7.998-4.945 11.938-6.9l-.04-.164.14-.04c-.275-4.387-.22-9.137.01-13.773-8.772.6-16.746 1.72-20.203 2.25 1.27 3.26 4.29 10.72 8.16 18.62zM21.263-62.95c2.12-4.135 4.45-8.28 6.882-11.947l-.1-.103.1-.104c-2.43-3.666-4.76-7.812-6.883-11.948-7.307 4.91-13.648 9.868-16.378 12.054 2.73 2.185 9.073 7.142 16.38 12.05zm-6.98 23.01c3.456.528 11.432 1.65 20.202 2.25-.23-4.638-.284-9.39-.01-13.777l-.142-.04.04-.16c-3.94-1.956-8.03-4.38-11.937-6.9-3.87 7.907-6.882 15.37-8.154 18.628zm22.783 26.72c-.503-3.185-1.773-11.83-2.406-21.45-9.593-.64-18.292-1.907-21.44-2.398L37.065-13.22zm21.5-9.22c-2.516-3.9-4.935-7.984-6.89-11.92l-.155.04-.04-.153c-1.95.12-4.06.184-6.29.184-2.47 0-4.99-.07-7.49-.2.6 8.79 1.73 16.77 2.26 20.23 3.26-1.27 10.72-4.29 18.63-8.17zm28.49 1.17c-4.135-2.124-8.28-4.456-11.944-6.89l-.112.11-.11-.106c-3.665 2.434-7.81 4.766-11.944 6.89 4.91 7.31 9.87 13.653 12.056 16.385 2.185-2.74 7.144-9.08 12.055-16.39zm25.255-13.223c-2.49.127-5.02.202-7.49.202-2.23 0-4.34-.07-6.28-.19l-.04.15-.15-.04c-1.95 3.93-4.37 8.02-6.89 11.92 7.91 3.87 15.37 6.89 18.63 8.17.53-3.46 1.65-11.44 2.25-20.23zm24.48-2.577c-3.15.49-11.85 1.76-21.44 2.398-.63 9.62-1.9 18.263-2.4 21.45l23.84-23.848zm-9.22-21.498c-3.9 2.52-8 4.944-11.94 6.9l.04.16-.14.04c.28 4.388.22 9.14-.01 13.776 8.77-.6 16.75-1.722 20.2-2.25-1.27-3.256-4.28-10.72-8.15-18.626zm1.18-28.486c-2.12 4.137-4.45 8.282-6.88 11.948l.11.106-.1.104c2.43 3.665 4.76 7.81 6.88 11.947 7.31-4.9 13.65-9.86 16.38-12.05-2.73-2.18-9.07-7.14-16.38-12.05zm6.98-23.005c-3.45-.52-11.43-1.64-20.2-2.24.23 4.64.29 9.39.01 13.78l.14.04-.04.16c3.94 1.96 8.04 4.38 11.94 6.9 3.87-7.9 6.88-15.37 8.16-18.62zm-22.78-26.72c.51 3.19 1.77 11.84 2.41 21.46 9.6.64 18.3 1.91 21.45 2.4l-23.85-23.85zm5.44-13.22L150-118.37v-4.242L122.62-150zm17.67 0L150-136.04v-4.242L140.287-150zM0-27.38L27.38 0h4.24L0-31.62zM0-9.712L9.713 0h4.242L0-13.954zM122.62 0L150-27.38v-4.24L118.38 0zm17.667 0L150-9.712v-4.242L136.045 0z"/>
    <path fill="#6EAEA4" d="M104.5-75c0 16.267-13.233 29.5-29.5 29.5S45.5-58.733 45.5-75s13.233-29.5 29.5-29.5 29.5 13.233 29.5 29.5zm-3 0c0-14.612-11.888-26.5-26.5-26.5S48.5-89.612 48.5-75 60.388-48.5 75-48.5s26.5-11.888 26.5-26.5z"/>
    <path fill="#6EAEA4" d="M90.82-75c0 8.723-7.097 15.82-15.82 15.82S59.18-66.278 59.18-75 66.276-90.82 75-90.82 90.82-83.722 90.82-75zm-3 0c0-7.068-5.75-12.82-12.82-12.82S62.18-82.067 62.18-75 67.93-62.18 75-62.18 87.82-67.933 87.82-75z"/>
  </pattern>
  <pattern id="b" xlink:href="#a" patternTransform="translate(-397.107 -321.596)"/>
  <path opacity=".2" fill="url(#b)" d="M0 0h1700v5272.117H0z"/>
</svg>
